<svg width="141" height="44" viewBox="0 0 141 44" fill="none" xmlns="http://www.w3.org/2000/svg">
<path d="M59.4 31L54.12 13.72H57.48L61.8 27.928L66.192 13.72H69.552L64.272 31H59.4ZM75.954 31.36C74.626 31.36 73.454 31.076 72.438 30.508C71.43 29.932 70.638 29.144 70.062 28.144C69.494 27.136 69.21 25.984 69.21 24.688C69.21 23.272 69.49 22.04 70.05 20.992C70.61 19.944 71.382 19.132 72.366 18.556C73.35 17.972 74.482 17.68 75.762 17.68C77.122 17.68 78.278 18 79.23 18.64C80.182 19.28 80.886 20.18 81.342 21.34C81.798 22.5 81.958 23.864 81.822 25.432H78.594V24.232C78.594 22.912 78.382 21.964 77.958 21.388C77.542 20.804 76.858 20.512 75.906 20.512C74.794 20.512 73.974 20.852 73.446 21.532C72.926 22.204 72.666 23.2 72.666 24.52C72.666 25.728 72.926 26.664 73.446 27.328C73.974 27.984 74.746 28.312 75.762 28.312C76.402 28.312 76.95 28.172 77.406 27.892C77.862 27.612 78.21 27.208 78.45 26.68L81.714 27.616C81.226 28.8 80.454 29.72 79.398 30.376C78.35 31.032 77.202 31.36 75.954 31.36ZM71.658 25.432V23.008H80.25V25.432H71.658ZM84.7716 31V13.36H88.0356V31H84.7716ZM91.8731 16.24V13.36H95.1371V16.24H91.8731ZM91.8731 31V18.04H95.1371V31H91.8731ZM104.447 31.36C103.103 31.36 101.951 31.06 100.991 30.46C100.031 29.86 99.2947 29.044 98.7827 28.012C98.2707 26.98 98.0147 25.816 98.0147 24.52C98.0147 23.208 98.2787 22.036 98.8067 21.004C99.3427 19.972 100.095 19.16 101.063 18.568C102.031 17.976 103.175 17.68 104.495 17.68C106.023 17.68 107.303 18.068 108.335 18.844C109.375 19.612 110.039 20.664 110.327 22L107.063 22.864C106.871 22.192 106.535 21.668 106.055 21.292C105.583 20.916 105.047 20.728 104.447 20.728C103.759 20.728 103.195 20.896 102.755 21.232C102.315 21.56 101.991 22.012 101.783 22.588C101.575 23.156 101.471 23.8 101.471 24.52C101.471 25.648 101.719 26.564 102.215 27.268C102.719 27.964 103.463 28.312 104.447 28.312C105.183 28.312 105.743 28.144 106.127 27.808C106.511 27.472 106.799 26.992 106.991 26.368L110.327 27.064C109.959 28.44 109.263 29.5 108.239 30.244C107.215 30.988 105.951 31.36 104.447 31.36ZM118.207 31.36C116.903 31.36 115.759 31.068 114.775 30.484C113.791 29.9 113.023 29.096 112.471 28.072C111.927 27.04 111.655 25.856 111.655 24.52C111.655 23.168 111.935 21.98 112.495 20.956C113.055 19.924 113.827 19.12 114.811 18.544C115.795 17.968 116.927 17.68 118.207 17.68C119.511 17.68 120.655 17.972 121.639 18.556C122.631 19.14 123.403 19.948 123.955 20.98C124.507 22.004 124.783 23.184 124.783 24.52C124.783 25.864 124.503 27.052 123.943 28.084C123.391 29.108 122.619 29.912 121.627 30.496C120.643 31.072 119.503 31.36 118.207 31.36ZM118.207 28.312C119.255 28.312 120.035 27.96 120.547 27.256C121.067 26.544 121.327 25.632 121.327 24.52C121.327 23.368 121.063 22.448 120.535 21.76C120.015 21.072 119.239 20.728 118.207 20.728C117.495 20.728 116.911 20.888 116.455 21.208C115.999 21.528 115.659 21.972 115.435 22.54C115.219 23.108 115.111 23.768 115.111 24.52C115.111 25.68 115.371 26.604 115.891 27.292C116.419 27.972 117.191 28.312 118.207 28.312ZM136.254 31V24.88C136.254 24.584 136.238 24.208 136.206 23.752C136.174 23.288 136.074 22.824 135.906 22.36C135.738 21.896 135.462 21.508 135.078 21.196C134.702 20.884 134.166 20.728 133.47 20.728C133.19 20.728 132.89 20.772 132.57 20.86C132.25 20.948 131.95 21.12 131.67 21.376C131.39 21.624 131.158 21.992 130.974 22.48C130.798 22.968 130.71 23.616 130.71 24.424L128.838 23.536C128.838 22.512 129.046 21.552 129.462 20.656C129.878 19.76 130.502 19.036 131.334 18.484C132.174 17.932 133.23 17.656 134.502 17.656C135.518 17.656 136.346 17.828 136.986 18.172C137.626 18.516 138.122 18.952 138.474 19.48C138.834 20.008 139.09 20.56 139.242 21.136C139.394 21.704 139.486 22.224 139.518 22.696C139.55 23.168 139.566 23.512 139.566 23.728V31H136.254ZM127.398 31V18.04H130.302V22.336H130.71V31H127.398Z" fill="black"/>
<path d="M10.2174 22L4.08696 12.2791L22.9891 0L22.4783 10.7442L10.2174 22Z" fill="url(#paint0_linear_1_4680)"/>
<path d="M22.4783 10.7442L22.9891 0L42.4022 8.69767L38.3152 26.093L12.2609 30.186L10.2174 22L22.4783 10.7442Z" fill="url(#paint1_linear_1_4680)"/>
<path d="M31.163 44L12.2609 30.186L38.3152 26.093L42.913 30.6977L31.163 44Z" fill="url(#paint2_linear_1_4680)"/>
<path d="M38.3152 26.093L42.913 30.6977L47 17.907L42.4022 8.69767L38.3152 26.093Z" fill="url(#paint3_linear_1_4680)"/>
<path d="M12.2609 30.186L31.163 44L12.2609 41.4418L0 26.6046L12.2609 30.186Z" fill="url(#paint4_linear_1_4680)"/>
<path d="M4.08696 12.2791L0 26.6046L12.2609 30.186L10.2174 22L4.08696 12.2791Z" fill="url(#paint5_linear_1_4680)"/>
<path d="M31.1639 43.9997L12.2617 30.1858L38.3161 26.0928L42.9139 30.6974L31.1639 43.9997Z" fill="black" fill-opacity="0.17"/>
<path d="M38.3145 26.0931L42.9123 30.6977L46.9992 17.9071L42.4014 8.69775L38.3145 26.0931Z" fill="black" fill-opacity="0.1"/>
<path d="M12.2609 30.1859L31.163 43.9998L12.2609 41.4417L0 26.6045L12.2609 30.1859Z" fill="black" fill-opacity="0.23"/>
<path d="M4.08696 12.2793L0 26.6049L12.2609 30.1863L10.2174 22.0002L4.08696 12.2793Z" fill="#C0C0C0" fill-opacity="0.05"/>
<path d="M10.2174 22L4.08696 12.2791L22.9891 0L22.4783 10.7442L10.2174 22Z" fill="white" fill-opacity="0.15"/>
<path fill-rule="evenodd" clip-rule="evenodd" d="M10.2174 22L22.4783 10.7442L22.9891 0L4.08696 12.2791L10.2174 22ZM10.2807 21.5255L22.1781 10.6033L22.6545 0.583262L4.50783 12.3716L10.2807 21.5255Z" fill="white" fill-opacity="0.15"/>
<path fill-rule="evenodd" clip-rule="evenodd" d="M22.7784 10.885L10.559 22.1028L12.4903 29.8393L38.0641 25.8217L42.0458 8.87429L23.2739 0.4639L22.7784 10.885ZM22.4783 10.7442L10.2174 22L12.2609 30.186L38.3152 26.093L42.4022 8.69767L22.9891 0L22.4783 10.7442Z" fill="white" fill-opacity="0.15"/>
<path fill-rule="evenodd" clip-rule="evenodd" d="M31.1183 43.5873L42.4924 30.7105L38.2087 26.4205L13.0388 30.3745L31.1183 43.5873ZM31.163 44L42.913 30.6977L38.3152 26.093L12.2609 30.186L31.163 44Z" fill="white" fill-opacity="0.15"/>
<path fill-rule="evenodd" clip-rule="evenodd" d="M42.913 30.6977L47 17.907L42.4022 8.69767L38.3152 26.093L42.913 30.6977ZM38.6527 25.9969L42.7743 30.1246L46.67 17.9325L42.5066 9.59332L38.6527 25.9969Z" fill="white" fill-opacity="0.15"/>
<path fill-rule="evenodd" clip-rule="evenodd" d="M12.1235 30.4657L0.872793 27.1793L12.4206 41.1537L30.0047 43.5334L12.1235 30.4657ZM12.2609 30.186L0 26.6046L12.2609 41.4418L31.163 44L12.2609 30.186Z" fill="white" fill-opacity="0.15"/>
<path fill-rule="evenodd" clip-rule="evenodd" d="M0.378475 26.3954L11.834 29.7416L9.93196 22.1222L4.19353 13.0229L0.378475 26.3954ZM0 26.6046L12.2609 30.186L10.2174 22L4.08696 12.2791L0 26.6046Z" fill="white" fill-opacity="0.15"/>
<path d="M14.4 33L9.12 15.72H12.48L16.8 29.928L21.192 15.72H24.552L19.272 33H14.4ZM30.954 33.36C29.626 33.36 28.454 33.076 27.438 32.508C26.43 31.932 25.638 31.144 25.062 30.144C24.494 29.136 24.21 27.984 24.21 26.688C24.21 25.272 24.49 24.04 25.05 22.992C25.61 21.944 26.382 21.132 27.366 20.556C28.35 19.972 29.482 19.68 30.762 19.68C32.122 19.68 33.278 20 34.23 20.64C35.182 21.28 35.886 22.18 36.342 23.34C36.798 24.5 36.958 25.864 36.822 27.432H33.594V26.232C33.594 24.912 33.382 23.964 32.958 23.388C32.542 22.804 31.858 22.512 30.906 22.512C29.794 22.512 28.974 22.852 28.446 23.532C27.926 24.204 27.666 25.2 27.666 26.52C27.666 27.728 27.926 28.664 28.446 29.328C28.974 29.984 29.746 30.312 30.762 30.312C31.402 30.312 31.95 30.172 32.406 29.892C32.862 29.612 33.21 29.208 33.45 28.68L36.714 29.616C36.226 30.8 35.454 31.72 34.398 32.376C33.35 33.032 32.202 33.36 30.954 33.36ZM26.658 27.432V25.008H35.25V27.432H26.658Z" fill="white"/>
<path d="M27.08 18L28.66 15.816L27.112 13.68H28.248L29.22 15.06L30.176 13.68H31.312L29.764 15.816L31.352 18H30.216L29.22 16.572L28.216 18H27.08ZM31.5097 18L33.0897 15.816L31.5417 13.68H32.6777L33.6497 15.06L34.6057 13.68H35.7417L34.1937 15.816L35.7817 18H34.6457L33.6497 16.572L32.6457 18H31.5097Z" fill="white"/>
<defs>
<linearGradient id="paint0_linear_1_4680" x1="0" y1="22.1053" x2="47" y2="22.1053" gradientUnits="userSpaceOnUse">
<stop stop-color="#6366F1"/>
<stop offset="0.5" stop-color="#8B5CF6"/>
<stop offset="1" stop-color="#D946EF"/>
</linearGradient>
<linearGradient id="paint1_linear_1_4680" x1="0" y1="22.1053" x2="47" y2="22.1053" gradientUnits="userSpaceOnUse">
<stop stop-color="#6366F1"/>
<stop offset="0.5" stop-color="#8B5CF6"/>
<stop offset="1" stop-color="#D946EF"/>
</linearGradient>
<linearGradient id="paint2_linear_1_4680" x1="0" y1="22.1053" x2="47" y2="22.1053" gradientUnits="userSpaceOnUse">
<stop stop-color="#6366F1"/>
<stop offset="0.5" stop-color="#8B5CF6"/>
<stop offset="1" stop-color="#D946EF"/>
</linearGradient>
<linearGradient id="paint3_linear_1_4680" x1="0" y1="22.1053" x2="47" y2="22.1053" gradientUnits="userSpaceOnUse">
<stop stop-color="#6366F1"/>
<stop offset="0.5" stop-color="#8B5CF6"/>
<stop offset="1" stop-color="#D946EF"/>
</linearGradient>
<linearGradient id="paint4_linear_1_4680" x1="0" y1="22.1053" x2="47" y2="22.1053" gradientUnits="userSpaceOnUse">
<stop stop-color="#6366F1"/>
<stop offset="0.5" stop-color="#8B5CF6"/>
<stop offset="1" stop-color="#D946EF"/>
</linearGradient>
<linearGradient id="paint5_linear_1_4680" x1="0" y1="22.1053" x2="47" y2="22.1053" gradientUnits="userSpaceOnUse">
<stop stop-color="#6366F1"/>
<stop offset="0.5" stop-color="#8B5CF6"/>
<stop offset="1" stop-color="#D946EF"/>
</linearGradient>
</defs>
</svg>
